<?xml version="1.0" encoding="utf-8"?>
<!-- Generator: Adobe Illustrator 23.0.6, SVG Export Plug-In . SVG Version: 6.00 Build 0)  -->
<svg version="1.1" id="Layer_1" xmlns="http://www.w3.org/2000/svg" xmlns:xlink="http://www.w3.org/1999/xlink" x="0px" y="0px"
	 viewBox="0 0 512 135.92" style="enable-background:new 0 0 512 135.92;" xml:space="preserve">
<style type="text/css">
	.st0{clip-path:url(#SVGID_2_);}
	.st1{clip-path:url(#SVGID_2_);fill:#FFFFFF;}
	.st2{clip-path:url(#SVGID_2_);fill:none;stroke:#000000;stroke-width:0.766;stroke-miterlimit:10;}
</style>
<g>
	<defs>
		<rect id="SVGID_1_" width="512" height="135.92"/>
	</defs>
	<clipPath id="SVGID_2_">
		<use xlink:href="#SVGID_1_"  style="overflow:visible;"/>
	</clipPath>
	<path class="st0" d="M102.46,47.25h32.2V29.19h-3.98v14.47h-24.06c0-0.02,0-0.04,0.01-0.06c0.07-0.36,0.24-4.54,5.37-4.54h-0.19
		v-3.67l0.13,0.01c-9.1,0-9.49,6.87-9.49,8.28L102.46,47.25z"/>
	<path class="st0" d="M139.49,35.47l0.05,10.85c0,1.23-0.32,2.17-0.97,2.81c-0.65,0.64-1.64,0.95-2.98,0.95h-1.01v3.12l1.12,0
		c1.29,0,2.42-0.14,3.38-0.41c0.96-0.28,1.77-0.71,2.41-1.29c0.64-0.58,1.12-1.34,1.45-2.25c0.32-0.92,0.48-2.04,0.48-3.34V35.47
		H139.49z"/>
	<path class="st0" d="M88.76,35.63h-3.97v8.27H71.97v-8.37h-0.02v-0.01l-3.9,0.04c-7,0.39-8.41,4.3-8.41,8.36v3.41h8.34h0.04
		c-0.13,0.77-0.42,1.39-0.88,1.85c-0.65,0.64-1.64,0.95-2.98,0.95h-2.61v3.13l2.72-0.01c1.28,0,2.41-0.13,3.37-0.41
		c0.97-0.28,1.77-0.7,2.41-1.29c0.64-0.59,1.13-1.34,1.45-2.26c0.19-0.54,0.31-1.15,0.39-1.82h16.88V35.63z M67.98,43.62h-4.55
		c0-4.85,4.55-4.51,4.55-4.51V43.62z"/>
	<path class="st0" d="M172.32,35.63h-3.97v8.27h-10.09v-8.37h-0.02v-0.01l-3.9,0.04c-7.01,0.39-8.41,4.3-8.41,8.36v3.41h8.33h0.05
		c-0.13,0.77-0.42,1.39-0.89,1.85c-0.65,0.64-1.64,0.95-2.98,0.95h-2.61v3.13l2.71-0.01c1.29,0,2.42-0.13,3.38-0.41
		c0.96-0.28,1.76-0.7,2.41-1.29c0.64-0.59,1.12-1.34,1.45-2.26c0.19-0.54,0.31-1.15,0.38-1.82h14.15V35.63z M154.26,43.62h-4.55
		c0-4.85,4.55-4.51,4.55-4.51V43.62z"/>
	<path class="st0" d="M210.16,35.63v8.27h-9.84v-8.27h-3.97v8.27h-8.65v-8.37h-0.02v-0.01l-3.9,0.04c-7.01,0.39-8.41,4.3-8.41,8.36
		v3.41h8.33h0.05c-0.13,0.77-0.42,1.39-0.89,1.85c-0.65,0.64-1.64,0.95-2.98,0.95h-2.61v3.13l2.72-0.01c1.29,0,2.41-0.13,3.38-0.41
		c0.96-0.28,1.77-0.7,2.41-1.29c0.64-0.59,1.12-1.34,1.45-2.26c0.19-0.54,0.31-1.15,0.38-1.82h10.86h1.85h13.81V35.63H210.16z
		 M183.7,43.62h-4.55c0-4.85,4.55-4.51,4.55-4.51V43.62z"/>
	<path class="st0" d="M50.9,35.48h-7.96v-7.07h-3.97v7.07v8.29H26.35v-8.3l-14.09,0v3.7h0.12c3.11,0.02,4.07,1.39,4.07,2.64
		c0,2.07-2.61,2.98-5.2,2.93H9.88c-6.03,0-5.7-4-5.7-4v-5.25H0.01L0,41.15c0,3.84,4.41,6.7,9.28,6.7h2.58
		c8.77,0,8.55-5.89,8.55-5.89c0.04-1.06-0.22-1.99-0.69-2.79h2.66v8.11l28.13,0c6.87,0,7.28-4.88,7.28-5.86
		C57.78,41.42,58.05,35.48,50.9,35.48 M50.64,43.65h-7.7v-4.59h7.62c2.8,0,3.19,1.65,3.19,2.33C53.74,42.04,53.69,43.65,50.64,43.65
		"/>
	<path class="st0" d="M49.31,32.2c0,1.02-0.83,1.86-1.86,1.86c-1.02,0-1.86-0.83-1.86-1.86c0-1.02,0.83-1.86,1.86-1.86
		C48.48,30.35,49.31,31.18,49.31,32.2"/>
	<path class="st0" d="M213.91,32.2c0,1.02-0.83,1.86-1.86,1.86c-1.02,0-1.85-0.83-1.85-1.86c0-1.02,0.83-1.86,1.85-1.86
		C213.08,30.35,213.91,31.18,213.91,32.2"/>
	<path class="st0" d="M22.52,51.34c0,1.02-0.83,1.85-1.85,1.85c-1.03,0-1.86-0.83-1.86-1.85c0-1.03,0.83-1.86,1.86-1.86
		C21.69,49.48,22.52,50.32,22.52,51.34"/>
	<path class="st0" d="M85.55,51.48c0,1.02-0.83,1.85-1.85,1.85c-1.02,0-1.86-0.83-1.86-1.85c0-1.02,0.83-1.86,1.86-1.86
		C84.72,49.62,85.55,50.45,85.55,51.48"/>
	<path class="st0" d="M10.21,51.34c0,1.02-0.83,1.85-1.86,1.85c-1.02,0-1.86-0.83-1.86-1.85c0-1.03,0.83-1.86,1.86-1.86
		C9.38,49.48,10.21,50.32,10.21,51.34"/>
	<path class="st0" d="M14.46,51.34c0,1.02-0.83,1.85-1.86,1.85c-1.02,0-1.86-0.83-1.86-1.85c0-1.03,0.83-1.86,1.86-1.86
		C13.63,49.48,14.46,50.32,14.46,51.34"/>
	<path class="st0" d="M166.55,51.48c0,1.02-0.83,1.85-1.85,1.85c-1.03,0-1.86-0.83-1.86-1.85c0-1.03,0.83-1.86,1.86-1.86
		C165.72,49.62,166.55,50.45,166.55,51.48"/>
	<path class="st0" d="M170.8,51.48c0,1.02-0.83,1.85-1.85,1.85c-1.03,0-1.86-0.83-1.86-1.85c0-1.03,0.83-1.86,1.86-1.86
		C169.97,49.62,170.8,50.45,170.8,51.48"/>
	<path class="st0" d="M196.29,51.48c0,1.02-0.83,1.85-1.86,1.85c-1.02,0-1.86-0.83-1.86-1.85c0-1.03,0.84-1.86,1.86-1.86
		C195.46,49.62,196.29,50.45,196.29,51.48"/>
	<path class="st0" d="M200.54,51.48c0,1.02-0.83,1.85-1.86,1.85c-1.02,0-1.86-0.83-1.86-1.85c0-1.03,0.83-1.86,1.86-1.86
		C199.71,49.62,200.54,50.45,200.54,51.48"/>
	<path class="st0" d="M93.93,31.87v-0.02c0-0.18,0.03-0.36,0.09-0.52c0.06-0.17,0.14-0.31,0.25-0.43c0.11-0.12,0.24-0.22,0.38-0.29
		c0.14-0.07,0.3-0.1,0.72-0.11v-1.22c-0.62,0-0.96,0.07-1.27,0.2c-0.32,0.14-0.59,0.32-0.82,0.56c-0.23,0.24-0.41,0.51-0.54,0.83
		c-0.13,0.32-0.2,0.65-0.2,1.01v0.02c0,0.02,0,0.04,0,0.06h-0.8v1.29h4.03v-1.29h-1.84C93.93,31.92,93.93,31.89,93.93,31.87"/>
	<path class="st0" d="M119.89,38.49v-0.02c0-0.25,0.04-0.48,0.12-0.7c0.08-0.22,0.19-0.41,0.33-0.57c0.14-0.17,0.32-0.3,0.51-0.39
		c0.19-0.09,0.4-0.14,0.95-0.14v-1.62c-0.82,0.01-1.28,0.09-1.7,0.27c-0.43,0.18-0.79,0.43-1.1,0.74c-0.31,0.31-0.55,0.68-0.72,1.1
		c-0.17,0.42-0.26,0.87-0.26,1.34v0.02c0,0.03,0,0.05,0,0.08h-1.06v1.72h5.37v-1.72h-2.44C119.9,38.56,119.89,38.52,119.89,38.49"/>
	<path class="st0" d="M302.7,35.39l-5.57-0.01v3.67h5.52c5.13,0,5.3,4.18,5.37,4.54c0,0.02,0,0.04,0.01,0.06h-19.6V29.19h-3.97
		v18.06h27.73l0-3.58C312.2,42.27,311.81,35.39,302.7,35.39"/>
	<path class="st0" d="M302.42,49.62c-1.02,0-1.86,0.83-1.86,1.86c0,1.02,0.83,1.85,1.86,1.85c1.03,0,1.86-0.83,1.86-1.85
		C304.28,50.45,303.45,49.62,302.42,49.62"/>
	<path class="st0" d="M227.91,34.06c1.02,0,1.85-0.83,1.85-1.86c0-1.02-0.83-1.85-1.85-1.85c-1.03,0-1.86,0.83-1.86,1.85
		C226.05,33.23,226.89,34.06,227.91,34.06"/>
	<path class="st0" d="M232.16,34.06c1.02,0,1.86-0.83,1.86-1.86c0-1.02-0.83-1.85-1.86-1.85c-1.02,0-1.85,0.83-1.85,1.85
		C230.31,33.23,231.14,34.06,232.16,34.06"/>
	<path class="st0" d="M273.22,35.32l-3.9-0.04v0.01h-0.02v8.37h-15.28c-0.09-0.35-0.15-0.71-0.15-1.1v-0.05c0-0.52,0.08-1,0.24-1.46
		c0.16-0.45,0.39-0.85,0.69-1.2c0.3-0.34,0.65-0.61,1.06-0.81c0.4-0.2,0.85-0.29,1.35-0.29c0.7,0,1.29,0.14,1.77,0.41
		c0.47,0.27,0.93,0.64,1.38,1.11l2.4-2.58c-0.65-0.73-1.41-1.29-2.27-1.7c-0.86-0.41-1.94-0.62-3.25-0.62
		c-1.07,0-2.04,0.19-2.93,0.57c-0.88,0.38-1.65,0.89-2.28,1.55c-0.64,0.66-1.14,1.42-1.5,2.29c-0.36,0.88-0.54,1.81-0.54,2.79v0.05
		c0,0.36,0.03,0.71,0.08,1.05h-14.81v-8.22h-4.58c-8.04,0-9.41,5.89-9.58,8.22h-0.01v0.18c-0.01,0.25-0.01,0.45-0.01,0.58v0.05h0.01
		v2.78h60.54v-3.59h-0.01C281.62,39.61,280.22,35.71,273.22,35.32 M225.16,43.66c-0.01-0.57-0.16-4.64,5.53-4.64h0.61v4.64H225.16z
		 M273.29,43.65v-4.78c0,0,4.54-0.34,4.54,4.78H273.29z"/>
	<path class="st0" d="M143.48,75.12h4.6l9.71,22.82h-5.21l-2.07-5.08h-9.58l-2.07,5.08h-5.08L143.48,75.12z M148.73,88.45
		l-3.01-7.34l-3.01,7.34H148.73z"/>
	<path class="st0" d="M160.04,75.28h10.51c2.59,0,4.63,0.71,5.92,2.01c1.04,1.03,1.56,2.3,1.56,3.85v0.06
		c0,2.55-1.36,3.98-2.98,4.88c2.62,1,4.24,2.53,4.24,5.57v0.06c0,4.14-3.37,6.22-8.48,6.22h-10.77V75.28z M169.48,84.44
		c2.2,0,3.59-0.71,3.59-2.39v-0.07c0-1.49-1.17-2.33-3.27-2.33h-4.92v4.79H169.48z M170.81,93.56c2.2,0,3.53-0.78,3.53-2.46v-0.06
		c0-1.52-1.13-2.46-3.69-2.46h-5.76v4.98H170.81z"/>
	<path class="st0" d="M181.25,88.22V75.28h4.98v12.81c0,3.69,1.85,5.6,4.89,5.6c3.04,0,4.89-1.84,4.89-5.44V75.28h4.98v12.78
		c0,6.86-3.85,10.22-9.93,10.22C184.97,98.29,181.25,94.89,181.25,88.22"/>
	<path class="st0" d="M211.31,75.28h8.84c7.12,0,12.04,4.89,12.04,11.26v0.06c0,6.38-4.92,11.33-12.04,11.33h-8.84V75.28z
		 M220.14,93.43c4.08,0,6.83-2.75,6.83-6.76v-0.07c0-4.01-2.75-6.83-6.83-6.83h-3.85v13.65H220.14z"/>
	<polygon class="st0" points="234.61,75.28 239.6,75.28 239.6,84.24 248.78,84.24 248.78,75.28 253.77,75.28 253.77,97.93 
		248.78,97.93 248.78,88.84 239.6,88.84 239.6,97.93 234.61,97.93 	"/>
	<path class="st0" d="M266.15,75.12h4.59l9.7,22.82h-5.21l-2.07-5.08h-9.57l-2.07,5.08h-5.08L266.15,75.12z M271.39,88.45
		l-3.01-7.34l-3.01,7.34H271.39z"/>
	<path class="st0" d="M283.13,75.28h10.52c2.59,0,4.63,0.71,5.92,2.01c1.04,1.03,1.55,2.3,1.55,3.85v0.06
		c0,2.55-1.36,3.98-2.98,4.88c2.63,1,4.24,2.53,4.24,5.57v0.06c0,4.14-3.37,6.22-8.48,6.22h-10.77V75.28z M292.58,84.44
		c2.2,0,3.59-0.71,3.59-2.39v-0.07c0-1.49-1.17-2.33-3.27-2.33h-4.92v4.79H292.58z M293.9,93.56c2.2,0,3.53-0.78,3.53-2.46v-0.06
		c0-1.52-1.13-2.46-3.69-2.46h-5.76v4.98H293.9z"/>
	<rect x="304.92" y="75.28" class="st0" width="4.98" height="22.66"/>
	<rect x="127.16" y="66.94" class="st0" width="0.87" height="39.78"/>
	<polygon class="st0" points="50.13,75.36 54.71,75.36 65.3,89.27 65.3,75.36 70.21,75.36 70.21,97.96 65.98,97.96 55.04,83.59 
		55.04,97.96 50.13,97.96 	"/>
	<polygon class="st0" points="81.37,89.05 72.69,75.36 78.5,75.36 83.89,84.43 89.38,75.36 95.03,75.36 86.34,88.95 86.34,97.96 
		81.37,97.96 	"/>
	<path class="st0" d="M97.16,88.27V75.36h4.97v12.78c0,3.68,1.84,5.59,4.88,5.59c3.03,0,4.87-1.84,4.87-5.42V75.36h4.97v12.75
		c0,6.84-3.84,10.2-9.91,10.2C100.87,98.31,97.16,94.92,97.16,88.27"/>
	<rect x="4.37" y="71.48" class="st1" width="27.51" height="33.89"/>
	<path class="st0" d="M39.81,106.73H0.03V66.94h39.78V106.73z M18.55,102.08c0.04,0.28,0.65,0.41,0.79,0l1.39-11.02h-3.38
		L18.55,102.08z M21.9,88.59h-5.74v1.66h5.74V88.59z M20.25,87.77c7.28,0.26,7.79-6.37,7.82-8.86c0-0.14-0.07-0.15-0.1-0.06
		c-0.21,0.52-1.16,2.37-3.79,3.5c-2.34,1-3.75,3.29-4,5.33C20.17,87.74,20.21,87.77,20.25,87.77 M19.45,87.29
		c1.15-5.52,5.65-5.66,6.05-6.71c0.63-1.63-0.52-4.54-0.81-4.88c-0.03-0.04-0.07-0.01-0.08,0.02c-0.61,1.34-1.6,2.61-2.32,3.2
		c-1.02,0.82-4.92,3.71-2.93,8.37C19.38,87.35,19.43,87.34,19.45,87.29 M18.65,87.51c-2.44-5.21,2.43-8.57,3.23-9.3
		c0.11-0.1,0.08-0.19,0.08-0.31c0-1.64-0.93-4.29-1.24-4.67c-0.04-0.06-0.08-0.03-0.1,0.03c-0.42,1.62-2.64,4.03-3.08,4.55
		c-3.76,4.48-2.9,7.2,1.03,9.77C18.62,87.61,18.68,87.57,18.65,87.51 M17.56,87.69c-4.08-2.43-3.67-5.9-1.98-8.46
		c0.04-0.05,0.05-0.14,0.04-0.24c-0.07-0.61-0.73-2.15-1.01-2.56c-0.07-0.11-0.13-0.1-0.14-0.02c-0.02,0.69-0.81,2.44-2.02,4.44
		c-1.29,2.14-1.29,6.77,5.1,6.95C17.61,87.79,17.62,87.73,17.56,87.69"/>
	<line class="st2" x1="346.58" y1="0" x2="346.58" y2="135.92"/>
	<path class="st0" d="M466.49,17.61c-15.7,0-29.53,7.95-37.71,20.04v0.79c7.99-7.99,19.81-12.97,27.92-12.97
		c20.44,0,37.01,16.57,37.01,37.01c0,20.44-16.57,37.01-37.01,37.01c-10.18,0-22.24-5.16-27.92-11.7v0.82
		c8.18,12.08,22.02,20.02,37.71,20.02c25.14,0,45.51-20.38,45.51-45.51S491.63,17.61,466.49,17.61"/>
	<path class="st0" d="M454.9,30.22c-12.06,0-22.6,6.49-28.33,16.17l-0.02,1.17c4.55-5.93,11.71-9.35,19.76-9.35
		c13.76,0,24.91,11.16,24.91,24.92c0,13.76-11.15,24.92-24.91,24.92c-8.05,0-15.2-3.5-19.76-9.42v1.21
		c5.72,9.7,16.27,16.21,28.35,16.21c18.17,0,32.91-14.73,32.91-32.9C487.81,44.95,473.07,30.22,454.9,30.22"/>
	<path class="st0" d="M466.01,63.12c0,11.93-9.95,21.54-22,20.99c-10.77-0.5-19.5-9.23-20-20c-0.56-12.06,9.05-22.01,20.99-22.01
		C456.6,42.11,466.01,51.52,466.01,63.12"/>
	<polygon class="st0" points="381.39,29.91 381.39,23.41 401.4,20.83 409.72,20.83 409.72,106.78 395.13,106.78 395.13,32.6 	"/>
</g>
</svg>
