<?xml version="1.0" encoding="utf-8"?>
<!-- Generator: Adobe Illustrator 23.0.6, SVG Export Plug-In . SVG Version: 6.00 Build 0)  -->
<svg version="1.1" id="Layer_1" xmlns="http://www.w3.org/2000/svg" xmlns:xlink="http://www.w3.org/1999/xlink" x="0px" y="0px"
	 viewBox="0 0 128 128" style="enable-background:new 0 0 128 128;" xml:space="preserve">
<style type="text/css">
	.st0{fill:#DA4B39;}
</style>
<path class="st0" d="M128,116.9l-27.4-27.4c7-9.3,11.2-21,11.2-33.5C111.8,25,86.8,0,55.9,0C25,0,0,25,0,55.9
	c0,30.9,25,55.9,55.9,55.9c12.6,0,24.2-4.2,33.5-11.2l27.4,27.4L128,116.9z M55.2,95.3C33,95.3,15,77.3,15,55.2C15,33,33,15,55.2,15
	c22.2,0,40.1,18,40.1,40.1C95.3,77.3,77.3,95.3,55.2,95.3z"/>
</svg>
